<svg width="20" height="20" viewBox="0 0 20 20" fill="none" xmlns="http://www.w3.org/2000/svg">
<g clip-path="url(#clip0)">
<path d="M16.7042 5.90918H3.29512C2.91852 5.90918 2.61328 6.21441 2.61328 6.59102V17.9546C2.61328 19.0826 3.53102 20.0001 4.65875 20.0001H15.3406C16.4686 20.0001 17.3861 19.0826 17.3861 17.9546V6.59098C17.386 6.21441 17.0808 5.90918 16.7042 5.90918ZM16.0224 17.9546C16.0224 18.3305 15.7165 18.6364 15.3405 18.6364H4.65875C4.28285 18.6364 3.97691 18.3305 3.97691 17.9546V7.27281H16.0224V17.9546V17.9546Z" fill="black"/>
<path d="M10.1143 0C7.85867 0 6.02344 1.83523 6.02344 4.0909V9.77273C6.02344 10.1493 6.32867 10.4546 6.70527 10.4546C7.08187 10.4546 7.38711 10.1493 7.38711 9.77273V4.0909C7.38711 2.58703 8.61051 1.36363 10.1144 1.36363C11.6182 1.36363 12.8416 2.58703 12.8416 4.0909V9.77273C12.8416 10.1493 13.1469 10.4546 13.5235 10.4546C13.9001 10.4546 14.2053 10.1493 14.2053 9.77273V4.0909C14.2052 1.83523 12.37 0 10.1143 0Z" fill="black"/>
</g>
<defs>
<clipPath id="clip0">
<rect width="20" height="20" fill="white"/>
</clipPath>
</defs>
</svg>
